<svg width="82" height="83" viewBox="0 0 82 83" fill="none" xmlns="http://www.w3.org/2000/svg">
<path d="M78.7039 45.815L45.3822 79.1367C41.1268 83.392 34.2028 83.392 29.9474 79.1367L25.62 74.8092C25.043 74.2322 25.0429 73.2224 25.6199 72.6454L25.6921 72.5733C26.1248 72.1405 26.8461 71.9963 27.4231 72.2848C28.6492 72.9339 31.7506 71.9963 34.4913 69.2556C36.8714 66.8754 37.7369 64.4232 37.7369 62.9807C37.5927 61.5382 38.1697 60.0957 39.3237 58.9417L41.4153 56.8501C42.4972 55.7682 43.9397 55.1912 45.4543 55.2633C46.8968 55.4076 49.349 54.3978 51.7292 52.0177C54.0372 49.7097 54.9748 47.1853 54.9748 45.7428C54.8305 44.3003 55.4075 42.8578 56.5615 41.7038L58.2925 39.9728C59.3744 38.891 60.8169 38.314 62.3315 38.3861C63.774 38.5303 66.2263 37.5206 68.6064 35.1405C71.275 32.4719 72.2848 29.4426 71.5635 28.1444C71.275 27.5674 71.4193 26.8461 71.852 26.4134L72.2126 26.0527C72.7896 25.4757 73.7994 25.4757 74.3764 26.0527L78.7039 30.3802C82.9592 34.6356 82.9592 41.5596 78.7039 45.815ZM30.3802 75.2419L32.1112 76.9729C35.1404 80.0022 40.1171 80.0743 43.2184 76.9729L76.5401 43.6512C79.5694 40.622 79.6415 35.6453 76.5401 32.544L74.5206 30.5245C74.16 32.7604 72.7175 35.2126 70.5538 37.3763C67.8851 40.045 64.5674 41.6317 61.8988 41.4153C61.3939 41.3432 60.8169 41.6317 60.312 42.1366L58.581 43.8676C58.1483 44.3003 57.8598 44.8773 57.8598 45.4543C58.0762 48.123 56.4894 51.4407 53.8208 54.1093C51.1522 56.7779 47.8344 58.3647 45.1658 58.1483C44.6609 58.0762 44.0839 58.3647 43.5791 58.8696L41.4874 60.9612C41.0547 61.3939 40.7662 61.9709 40.7662 62.5479C40.9826 65.2166 39.3958 68.5343 36.7272 71.2029C34.7077 73.3667 32.5439 74.6649 30.3802 75.2419ZM67.3803 23.6726L23.8168 67.2361C21.004 70.0489 16.3158 69.9768 13.3587 67.0197C11.9162 65.5772 11.1228 63.7741 11.0507 61.8267C11.0507 59.8072 11.6998 58.0041 13.0702 56.6337L42.6414 27.0625C43.002 26.7019 43.579 26.5576 44.0839 26.6297L48.1229 27.6395L48.6278 21.5089C48.6999 21.1482 48.772 20.7876 49.0605 20.4991L56.6337 12.926C59.4465 10.1131 64.1346 10.1853 67.0918 13.1424C68.5343 14.5849 69.3276 16.388 69.3998 18.3354C69.4719 20.427 68.7506 22.3022 67.3803 23.6726ZM15.234 58.6532C14.4406 59.4466 14.0078 60.4563 14.08 61.6824C14.08 62.8364 14.657 63.9904 15.5225 64.8559C17.2535 66.5869 19.9942 66.7312 21.6531 65.0723L65.2165 21.5089C66.0099 20.7155 66.4426 19.7058 66.3705 18.4796C66.3705 17.3256 65.7935 16.1716 64.928 15.3061C63.197 13.5751 60.4563 13.4309 58.7974 15.0898L51.657 22.2301L51.08 29.5869C51.08 30.0196 50.7915 30.4524 50.4309 30.6687C50.0703 30.8851 49.6375 31.0294 49.2048 30.8851L44.156 29.7311L15.234 58.6532ZM50.6473 30.5966C50.5752 30.6687 50.503 30.7409 50.503 30.7409C50.1424 30.9572 49.7097 31.1015 49.2769 30.9572L44.156 29.7311L15.3782 58.5089C14.8012 59.0859 13.7915 59.0859 13.2145 58.5089L8.30998 53.6045C7.73298 53.0275 7.73298 52.0177 8.30997 51.4407L51.08 8.67064C51.657 8.09364 52.6668 8.09364 53.2438 8.67064L58.1483 13.5751C58.7253 14.1521 58.7253 15.1619 58.1483 15.7389L51.657 22.2301L51.08 29.5869C51.08 30.0196 50.9358 30.3081 50.6473 30.5966ZM14.2963 55.2633L42.5693 26.9904C42.9299 26.6297 43.5069 26.4855 44.0118 26.5576L48.0508 27.5674L48.5557 21.4367C48.6278 21.0761 48.6999 20.7155 48.9884 20.427L54.7584 14.657L52.0177 11.9163L11.4835 52.4505L14.2963 55.2633ZM70.6259 37.4485C67.5966 40.4777 63.9183 41.9923 61.1775 41.4153L57.7877 44.8052C58.3647 47.546 56.85 51.2243 53.8208 54.2536C50.7915 57.2828 47.1132 58.7974 44.3724 58.2204L40.6219 61.9709C41.1989 64.7117 39.6843 68.3901 36.6551 71.4193C33.4816 74.5928 29.6589 76.1074 26.9903 75.314C24.8266 76.468 22.158 76.1074 20.427 74.3764C18.6238 72.5733 18.3353 69.6883 19.6336 67.5246C19.7057 67.3082 19.85 67.1639 19.9942 67.0197L66.5869 20.427C68.7506 18.2633 72.2126 18.2632 74.3764 20.427C76.468 22.5186 76.5401 25.9085 74.5928 28.0001C75.1698 30.7409 73.6551 34.4192 70.6259 37.4485ZM54.9748 43.2906L59.6629 38.6025C60.0957 38.1697 60.8169 38.0255 61.3939 38.314C62.62 38.9631 65.7214 38.0255 68.4621 35.2847C71.1308 32.6161 72.1405 29.5869 71.4193 28.2886C71.1308 27.7116 71.275 26.9904 71.7078 26.5576L72.2126 26.0527C73.1503 25.1151 73.1503 23.5284 72.2126 22.5907C71.275 21.6531 69.6883 21.6531 68.7506 22.5907L22.4465 68.8949C22.3743 68.9671 22.3743 68.9671 22.3022 69.0392C21.581 70.0489 21.6531 71.4193 22.5186 72.2848C23.3841 73.1503 24.7545 73.2224 25.7642 72.5012C25.9084 72.3569 26.0527 72.3569 26.1248 72.2848C26.5576 72.1405 27.0624 72.0684 27.4231 72.2848C28.6492 72.9339 31.7506 71.9963 34.4913 69.2556C37.1599 66.5869 38.1697 63.5577 37.4484 62.2594C37.1599 61.6824 37.3042 60.9612 37.7369 60.5284L42.7857 55.4797C43.2184 55.0469 43.9397 54.9027 44.5167 55.1912C45.7428 55.8403 48.8442 54.9027 51.5128 52.2341C54.1814 49.5655 55.1912 46.5362 54.4699 45.238C54.3978 44.4446 54.4699 43.7955 54.9748 43.2906ZM55.1912 9.03126L8.59848 55.624C8.02148 56.2009 7.01173 56.2009 6.43473 55.6239L5.13648 54.3257C-1.35476 47.8345 -1.35476 37.3042 5.13648 30.813L30.3081 5.64139C36.7993 -0.849844 47.3295 -0.849849 53.8208 5.64139L55.119 6.93964C55.7682 7.44452 55.7682 8.45426 55.1912 9.03126ZM7.5166 52.3783L51.9455 7.94939L51.7292 7.73301C46.464 2.4679 37.8091 2.4679 32.5439 7.73302L7.37235 32.9046C2.10723 38.1697 2.10723 46.8247 7.37235 52.0898L7.58873 52.3062L7.5166 52.3783ZM13.4308 39.9728L13.4308 34.4914C13.4308 33.6259 12.7817 32.9767 11.9162 32.9767C11.0507 32.9767 10.4016 33.6259 10.4016 34.4914L10.4016 39.9728C10.4016 40.8383 11.0507 41.4875 11.9162 41.4875C12.349 41.4875 12.7096 41.2711 12.9981 40.9826C13.2145 40.7662 13.3587 40.3335 13.4308 39.9728ZM25.9085 27.4952L25.9084 22.0137C25.9084 21.1483 25.2593 20.4991 24.3938 20.4991C23.5283 20.4991 22.8792 21.1482 22.8792 22.0137L22.8792 27.4952C22.8792 28.3607 23.5283 29.0099 24.3938 29.0099C24.8266 29.0099 25.1872 28.7935 25.4757 28.505C25.6921 28.2886 25.8363 27.8559 25.9085 27.4952ZM37.9533 15.4504L37.9533 9.96889C37.9533 9.10339 37.3042 8.45427 36.4387 8.45427C35.5732 8.45426 34.9241 9.10339 34.9241 9.96889L34.9241 15.4504C34.9241 16.3159 35.5732 16.965 36.4387 16.965C36.8714 16.965 37.2321 16.7486 37.5206 16.4601C37.7369 16.2438 37.8812 15.811 37.9533 15.4504Z" fill="#D55D7B" fill-opacity="0.15"/>
</svg>
