<svg width="58" height="64" viewBox="0 0 58 64" fill="none" xmlns="http://www.w3.org/2000/svg">
<path opacity="0.9" d="M16.6665 23.2022L55.2159 0.182145C55.2159 0.182145 56.0014 -0.331441 56.6239 0.366195C57.3511 1.1813 56.5281 1.65825 56.5281 1.65825C43.3342 10.4158 30.4423 18.9939 17.1442 27.7985C17.0851 27.8546 14.7919 29.905 17.5887 31.2682C20.3111 32.595 49.6453 46.8388 49.6453 46.8388C49.6453 46.8388 54.767 49.1578 54.9302 54.7897C55.0935 60.4216 49.9005 63.3521 49.9005 63.3521C49.9005 63.3521 48.5028 64.1287 46.1971 63.9814C43.8913 63.8342 38.3692 60.8378 38.3692 60.8378L4.38659 43.6547C4.38659 43.6547 -0.85754 41.1148 0.121909 36.9185C1.10136 32.7221 5.08037 32.2988 5.42726 32.2988C5.77414 32.2988 6.12103 32.6485 5.83536 33.2191C5.54969 33.7896 2.44025 37.0097 9.31456 40.4099C16.1889 43.8102 46.4857 58.8363 46.4857 58.8363C46.4857 58.8363 52.9719 53.9109 45.2106 50.0106C37.4493 46.1104 13.3314 33.9016 13.3314 33.9016C11.8198 33.11 7.56755 28.3194 16.6665 23.2022Z" fill="#148987"/>
<path opacity="0.9" d="M22.4849 33.6577L56.3517 14.1378C56.3517 14.1378 57.1486 13.6839 57.7357 14.4215C58.3229 15.1592 57.7986 15.6321 57.4421 15.859C57.0856 16.086 27.7693 36.2111 27.7693 36.2111L22.4849 33.6577Z" fill="#148987"/>
</svg>
