<svg width="59" height="64" viewBox="0 0 59 64" fill="none" xmlns="http://www.w3.org/2000/svg">
<path opacity="0.9" d="M17.3332 23.2021L55.8825 0.182023C55.8825 0.182023 56.6681 -0.331563 57.2905 0.366073C58.0177 1.18118 57.1947 1.65813 57.1947 1.65813C44.0008 10.4157 31.1089 18.9938 17.8108 27.7984C17.7517 27.8545 15.4585 29.9048 18.2554 31.268C20.9777 32.5949 50.3119 46.8386 50.3119 46.8386C50.3119 46.8386 55.4336 49.1577 55.5968 54.7896C55.7601 60.4215 50.5671 63.3519 50.5671 63.3519C50.5671 63.3519 49.1695 64.1285 46.8637 63.9813C44.5579 63.8341 39.0358 60.8376 39.0358 60.8376L5.05322 43.6546C5.05322 43.6546 -0.190914 41.1147 0.788535 36.9184C1.76798 32.722 5.74699 32.2987 6.09388 32.2987C6.44077 32.2987 6.78766 32.6484 6.50199 33.219C6.21631 33.7895 3.10687 37.0096 9.98118 40.4098C16.8555 43.8101 47.1523 58.8362 47.1523 58.8362C47.1523 58.8362 53.6386 53.9108 45.8773 50.0105C38.1159 46.1102 13.998 33.9014 13.998 33.9014C12.4865 33.1098 8.23418 28.3193 17.3332 23.2021Z" fill="#D55D7B"/>
<path opacity="0.9" d="M23.1516 33.6575L57.0184 14.1377C57.0184 14.1377 57.8153 13.6837 58.4025 14.4214C58.9896 15.1591 58.4654 15.6319 58.1089 15.8589C57.7524 16.0859 28.4361 36.211 28.4361 36.211L23.1516 33.6575Z" fill="#D55D7B"/>
</svg>
